<mxfile host="app.diagrams.net" modified="2024-02-13T17:33:36.795Z" agent="Mozilla/5.0 (Windows NT 10.0; Win64; x64) AppleWebKit/537.36 (KHTML, like Gecko) Chrome/121.0.0.0 Safari/537.36" etag="fMjeNMoIbulGjWFqddeh" version="21.3.8" type="google">
  <diagram name="Página-1" id="_rZMJJjq1ecfp5Rl2R84">
    <mxGraphModel grid="0" page="0" gridSize="10" guides="1" tooltips="1" connect="1" arrows="1" fold="1" pageScale="1" pageWidth="827" pageHeight="1169" math="0" shadow="0">
      <root>
        <mxCell id="0" />
        <mxCell id="1" parent="0" />
        <mxCell id="wGfFtNY3NqDNsdTDvamO-8" value="Profesor" style="shape=umlActor;verticalLabelPosition=bottom;verticalAlign=top;html=1;fontSize=16;" vertex="1" parent="1">
          <mxGeometry x="-236" y="233" width="30" height="60" as="geometry" />
        </mxCell>
        <mxCell id="rl2K9kugZrbt6g1fx0eB-3" value="Dar alta asignatura" style="ellipse;whiteSpace=wrap;html=1;" vertex="1" parent="1">
          <mxGeometry x="-128" y="132" width="120" height="80" as="geometry" />
        </mxCell>
        <mxCell id="rl2K9kugZrbt6g1fx0eB-5" value="" style="endArrow=classic;html=1;rounded=0;exitX=0.5;exitY=0.5;exitDx=0;exitDy=0;exitPerimeter=0;entryX=0;entryY=0.5;entryDx=0;entryDy=0;" edge="1" parent="1" source="wGfFtNY3NqDNsdTDvamO-8" target="rl2K9kugZrbt6g1fx0eB-3">
          <mxGeometry width="50" height="50" relative="1" as="geometry">
            <mxPoint x="-86" y="598" as="sourcePoint" />
            <mxPoint x="-36" y="548" as="targetPoint" />
          </mxGeometry>
        </mxCell>
        <mxCell id="rl2K9kugZrbt6g1fx0eB-6" value="Consultar peticion" style="ellipse;whiteSpace=wrap;html=1;" vertex="1" parent="1">
          <mxGeometry x="58" y="98" width="120" height="80" as="geometry" />
        </mxCell>
        <mxCell id="rl2K9kugZrbt6g1fx0eB-7" value="Solicitar cambio" style="ellipse;whiteSpace=wrap;html=1;" vertex="1" parent="1">
          <mxGeometry x="191" y="175" width="120" height="80" as="geometry" />
        </mxCell>
        <mxCell id="rl2K9kugZrbt6g1fx0eB-8" value="Publicar cambio" style="ellipse;whiteSpace=wrap;html=1;" vertex="1" parent="1">
          <mxGeometry x="191" y="383" width="120" height="80" as="geometry" />
        </mxCell>
        <mxCell id="rl2K9kugZrbt6g1fx0eB-11" value="Alumno" style="shape=umlActor;verticalLabelPosition=bottom;verticalAlign=top;html=1;fontSize=16;" vertex="1" parent="1">
          <mxGeometry x="395" y="287" width="30" height="60" as="geometry" />
        </mxCell>
        <mxCell id="rl2K9kugZrbt6g1fx0eB-12" value="" style="endArrow=classic;html=1;rounded=0;exitX=0.5;exitY=0.5;exitDx=0;exitDy=0;exitPerimeter=0;entryX=1;entryY=0.5;entryDx=0;entryDy=0;" edge="1" parent="1" source="rl2K9kugZrbt6g1fx0eB-11" target="rl2K9kugZrbt6g1fx0eB-7">
          <mxGeometry width="50" height="50" relative="1" as="geometry">
            <mxPoint x="548" y="680" as="sourcePoint" />
            <mxPoint x="505" y="315" as="targetPoint" />
          </mxGeometry>
        </mxCell>
        <mxCell id="rl2K9kugZrbt6g1fx0eB-14" value="" style="endArrow=classic;html=1;rounded=0;entryX=1.008;entryY=0.413;entryDx=0;entryDy=0;entryPerimeter=0;exitX=0.5;exitY=0.5;exitDx=0;exitDy=0;exitPerimeter=0;" edge="1" parent="1" source="rl2K9kugZrbt6g1fx0eB-11" target="rl2K9kugZrbt6g1fx0eB-8">
          <mxGeometry width="50" height="50" relative="1" as="geometry">
            <mxPoint x="410" y="266.28932188134524" as="sourcePoint" />
            <mxPoint x="410" y="216.28932188134524" as="targetPoint" />
          </mxGeometry>
        </mxCell>
        <mxCell id="fgov1mrKWr5VX93ut1RP-1" value="Dar alta grupo" style="ellipse;whiteSpace=wrap;html=1;" vertex="1" parent="1">
          <mxGeometry x="-128" y="223" width="120" height="80" as="geometry" />
        </mxCell>
        <mxCell id="fgov1mrKWr5VX93ut1RP-2" value="Listado Alumnos por grupo" style="ellipse;whiteSpace=wrap;html=1;" vertex="1" parent="1">
          <mxGeometry x="-128" y="314" width="120" height="80" as="geometry" />
        </mxCell>
        <mxCell id="fgov1mrKWr5VX93ut1RP-3" value="" style="endArrow=classic;html=1;rounded=0;exitX=0.5;exitY=0.5;exitDx=0;exitDy=0;exitPerimeter=0;entryX=0;entryY=0.5;entryDx=0;entryDy=0;" edge="1" parent="1" source="wGfFtNY3NqDNsdTDvamO-8" target="fgov1mrKWr5VX93ut1RP-1">
          <mxGeometry width="50" height="50" relative="1" as="geometry">
            <mxPoint x="-231" y="363" as="sourcePoint" />
            <mxPoint x="-181" y="313" as="targetPoint" />
          </mxGeometry>
        </mxCell>
        <mxCell id="fgov1mrKWr5VX93ut1RP-4" value="" style="endArrow=classic;html=1;rounded=0;exitX=0.5;exitY=0.5;exitDx=0;exitDy=0;exitPerimeter=0;entryX=0;entryY=0.5;entryDx=0;entryDy=0;" edge="1" parent="1" source="wGfFtNY3NqDNsdTDvamO-8" target="fgov1mrKWr5VX93ut1RP-2">
          <mxGeometry width="50" height="50" relative="1" as="geometry">
            <mxPoint x="-131" y="521" as="sourcePoint" />
            <mxPoint x="-81" y="471" as="targetPoint" />
          </mxGeometry>
        </mxCell>
        <mxCell id="fgov1mrKWr5VX93ut1RP-8" value="" style="endArrow=classic;html=1;rounded=0;exitX=0;exitY=0.5;exitDx=0;exitDy=0;entryX=0.5;entryY=1;entryDx=0;entryDy=0;" edge="1" parent="1" source="rl2K9kugZrbt6g1fx0eB-7" target="rl2K9kugZrbt6g1fx0eB-6">
          <mxGeometry width="50" height="50" relative="1" as="geometry">
            <mxPoint x="147" y="246" as="sourcePoint" />
            <mxPoint x="197" y="196" as="targetPoint" />
          </mxGeometry>
        </mxCell>
        <mxCell id="fgov1mrKWr5VX93ut1RP-9" value="use" style="text;html=1;align=center;verticalAlign=middle;resizable=0;points=[];autosize=1;strokeColor=none;fillColor=none;" vertex="1" parent="1">
          <mxGeometry x="139" y="182" width="37" height="26" as="geometry" />
        </mxCell>
        <mxCell id="fgov1mrKWr5VX93ut1RP-10" value="Comprobar su matriculación" style="ellipse;whiteSpace=wrap;html=1;" vertex="1" parent="1">
          <mxGeometry x="48" y="272" width="120" height="80" as="geometry" />
        </mxCell>
        <mxCell id="fgov1mrKWr5VX93ut1RP-11" value="" style="endArrow=classic;html=1;rounded=0;entryX=0.5;entryY=0;entryDx=0;entryDy=0;exitX=0.5;exitY=1;exitDx=0;exitDy=0;" edge="1" parent="1" source="rl2K9kugZrbt6g1fx0eB-6" target="fgov1mrKWr5VX93ut1RP-10">
          <mxGeometry width="50" height="50" relative="1" as="geometry">
            <mxPoint x="185" y="322" as="sourcePoint" />
            <mxPoint x="235" y="272" as="targetPoint" />
          </mxGeometry>
        </mxCell>
        <mxCell id="fgov1mrKWr5VX93ut1RP-12" value="use" style="edgeLabel;html=1;align=center;verticalAlign=middle;resizable=0;points=[];" connectable="0" vertex="1" parent="fgov1mrKWr5VX93ut1RP-11">
          <mxGeometry x="-0.4151" y="-2" relative="1" as="geometry">
            <mxPoint y="1" as="offset" />
          </mxGeometry>
        </mxCell>
        <mxCell id="fgov1mrKWr5VX93ut1RP-13" value="" style="endArrow=classic;html=1;rounded=0;exitX=0;exitY=0.5;exitDx=0;exitDy=0;entryX=0.5;entryY=1;entryDx=0;entryDy=0;" edge="1" parent="1" source="rl2K9kugZrbt6g1fx0eB-8" target="fgov1mrKWr5VX93ut1RP-10">
          <mxGeometry width="50" height="50" relative="1" as="geometry">
            <mxPoint x="74" y="499" as="sourcePoint" />
            <mxPoint x="124" y="449" as="targetPoint" />
          </mxGeometry>
        </mxCell>
        <mxCell id="fgov1mrKWr5VX93ut1RP-14" value="use" style="edgeLabel;html=1;align=center;verticalAlign=middle;resizable=0;points=[];" connectable="0" vertex="1" parent="fgov1mrKWr5VX93ut1RP-13">
          <mxGeometry x="-0.3704" relative="1" as="geometry">
            <mxPoint x="-18" y="-18" as="offset" />
          </mxGeometry>
        </mxCell>
      </root>
    </mxGraphModel>
  </diagram>
</mxfile>
